<?xml version="1.0" encoding="utf-8"?>
<!-- Generator: Adobe Illustrator 20.1.0, SVG Export Plug-In . SVG Version: 6.00 Build 0)  -->
<svg version="1.1" id="Capa_1" xmlns="http://www.w3.org/2000/svg" xmlns:xlink="http://www.w3.org/1999/xlink" x="0px" y="0px"
	 viewBox="0 0 676 516" style="enable-background:new 0 0 676 516;" xml:space="preserve">
<style type="text/css">
	.st0{fill:#FFFFFF;}
</style>
<g>
	<path class="st0" d="M428,363c-67,0-134,0-201,0c-1-2.5-2.8-4.9-2.9-7.4c-0.2-23-0.1-46-0.1-69c0-1.4,0.2-2.9,0.3-4.3
		c69.1,0,137.8,0,206.7,0c0,25.3,0.1,50.3-0.1,75.3C430.9,359.4,429,361.2,428,363z"/>
	<path class="st0" d="M215,249c2.6-1,5.2-2.9,7.9-2.9c52.5-0.2,104.9-0.1,157.4-0.1c2,0,4,0,6.1,0c2.4-8.5,7.5-14.1,15.6-17.1
		c1.3-0.5,1.9-2.8,3.3-4.9c1.7,0,4.3,0,7.3,0c0.2,1.3,0.5,2.7,0.8,4.4c8.7,2.5,14.7,8.2,16.8,15.9c3.9,1.8,6.9,3.2,9.9,4.6
		c0,7,0,14,0,21c-2.3,1-4.6,2.9-6.9,2.9c-70.4,0.2-140.8,0.2-211.3,0c-2.3,0-4.6-1.9-6.9-2.9C215,263,215,256,215,249z M420.7,245.8
		c-2.4-6-6.5-8.9-12.5-8.7c-5.8,0.1-9.9,3.2-11.7,8.7C404.5,245.8,412.6,245.8,420.7,245.8z"/>
	<path class="st0" d="M332,138c9.4,3,17.1,7.8,20.7,17.6c5.1,14-1.9,29.4-16,34.6c-14,5.1-29.5-2.1-34.5-16
		c-5.1-14.1,2.2-29.4,16.2-34.5c1.5-0.5,3-1.1,4.5-1.7C326,138,329,138,332,138z"/>
	<path class="st0" d="M283.2,236.7c-2.6-20,5.8-34.6,23-39c4.6-1.2,9.6-0.9,14.4-1c6.8-0.1,13.7-0.1,20.5,0
		c17.6,0.1,30.9,13.2,31.2,30.8c0.1,3,0,5.9,0,9.1C342.4,236.7,313,236.7,283.2,236.7z"/>
</g>
</svg>
