<?xml version="1.0" standalone="no"?>
<!DOCTYPE svg PUBLIC "-//W3C//DTD SVG 20010904//EN"
 "http://www.w3.org/TR/2001/REC-SVG-20010904/DTD/svg10.dtd">
<svg version="1.0" xmlns="http://www.w3.org/2000/svg"
 width="879.000000pt" height="447.000000pt" viewBox="0 0 879.000000 447.000000"
 preserveAspectRatio="xMidYMid meet">
<metadata>
Created by potrace 1.10, written by Peter Selinger 2001-2011
</metadata>
<g transform="translate(0.000000,447.000000) scale(0.100000,-0.100000)"
fill="#ffffff" stroke="none">
<path d="M1484 4313 c-8 -21 -24 -60 -35 -88 -11 -27 -31 -74 -44 -103 -14
-29 -25 -55 -25 -58 0 -5 -26 -62 -102 -224 -17 -36 -70 -144 -118 -240 -48
-96 -95 -191 -105 -210 -9 -19 -21 -43 -26 -53 -5 -10 -24 -44 -41 -75 -17
-31 -53 -100 -81 -152 -27 -52 -61 -115 -75 -140 -24 -42 -78 -146 -142 -270
-24 -46 -71 -146 -111 -235 -4 -11 -18 -45 -29 -75 -11 -30 -25 -64 -30 -75
-5 -11 -18 -51 -30 -90 -12 -38 -25 -79 -30 -90 -5 -11 -11 -33 -15 -50 -3
-16 -10 -48 -16 -70 -5 -22 -12 -58 -15 -80 -3 -22 -9 -49 -14 -60 -11 -25
-24 -185 -24 -285 0 -102 15 -260 26 -266 4 -3 8 -17 8 -32 0 -81 110 -334
199 -457 62 -85 175 -202 256 -263 33 -25 62 -49 65 -52 3 -3 16 -11 30 -18
14 -7 48 -26 75 -42 47 -29 72 -42 120 -60 100 -40 346 -56 485 -32 36 6 82
14 103 18 20 3 40 10 43 15 3 5 14 9 25 9 19 0 72 19 159 58 51 22 148 83 216
135 94 71 289 285 317 347 4 8 16 29 26 45 35 53 61 105 61 119 0 7 7 19 15
26 8 7 15 22 15 34 0 12 7 32 16 44 19 27 15 77 -6 76 -13 -1 -15 31 -13 235
1 130 4 250 7 266 3 18 -1 45 -11 69 -14 31 -15 40 -5 44 7 2 19 16 25 31 11
24 12 21 15 -37 2 -44 7 -65 17 -69 22 -8 22 -388 0 -397 -19 -7 -22 -110 -2
-104 7 3 13 25 15 53 2 26 10 54 18 62 21 21 20 366 -2 387 -8 8 -14 32 -14
53 0 21 -7 56 -15 78 -8 22 -14 56 -15 75 0 19 -7 44 -15 54 -8 11 -15 29 -15
41 0 12 -7 30 -15 41 -8 10 -15 27 -15 36 0 9 -8 31 -17 50 -9 18 -22 44 -29
58 -23 47 -47 95 -56 110 -4 8 -12 24 -17 35 -5 11 -21 37 -35 58 -14 21 -26
42 -26 46 0 5 -6 14 -14 20 -8 7 -22 27 -31 46 -23 49 -39 45 -30 -7 29 -176
39 -608 17 -748 -5 -36 -13 -91 -17 -123 -5 -32 -12 -60 -16 -63 -5 -3 -9 -22
-9 -43 0 -20 -4 -41 -8 -47 -5 -5 -14 -29 -21 -54 -41 -151 -181 -387 -282
-473 -78 -66 -108 -88 -152 -111 -23 -13 -52 -28 -62 -34 -38 -21 -114 -52
-129 -52 -8 0 -25 -4 -38 -9 -60 -23 -181 -33 -262 -21 -45 6 -88 15 -96 20
-9 4 -30 11 -47 14 -49 11 -58 29 -45 84 6 26 14 76 17 112 3 36 10 74 14 85
17 43 40 122 47 160 3 22 10 45 14 50 4 6 17 39 29 75 50 143 165 370 247 487
80 115 136 188 145 191 5 2 9 9 9 16 0 7 9 24 21 37 11 13 47 62 79 109 32 47
63 90 67 95 7 9 91 141 118 187 6 9 33 54 61 100 55 90 114 207 114 226 0 7 5
20 11 30 10 16 -32 99 -221 442 -67 121 -300 604 -300 622 0 5 -6 22 -13 36
-26 50 -45 97 -67 162 -12 36 -26 73 -31 82 -5 10 -9 29 -9 42 0 40 -18 40
-36 -1z m1136 -3058 c0 -29 -15 -33 -29 -6 -11 20 -5 31 16 31 7 0 13 -11 13
-25z"/>
<path d="M3447 3944 c-4 -4 -7 -17 -7 -29 0 -11 -4 -25 -9 -30 -12 -14 -39
-104 -46 -156 -4 -24 -11 -53 -16 -64 -11 -26 -40 -131 -46 -170 -2 -16 -8
-39 -13 -50 -16 -35 -50 -161 -50 -183 0 -11 -4 -24 -10 -27 -5 -3 -10 -16
-10 -28 0 -12 -9 -48 -20 -81 -11 -32 -17 -62 -14 -67 8 -14 74 -11 78 4 2 6
12 50 21 97 10 47 25 102 33 123 l16 37 131 0 c115 0 134 -2 148 -18 10 -10
17 -26 17 -36 0 -22 39 -163 53 -193 8 -18 19 -23 49 -23 26 0 38 4 38 14 0 8
-4 18 -10 21 -5 3 -10 14 -10 24 0 18 -35 141 -50 176 -5 11 -12 40 -16 65 -3
24 -10 51 -14 60 -13 28 -32 84 -45 140 -25 103 -32 125 -42 145 -6 11 -13 38
-17 60 -4 22 -11 54 -17 70 -40 130 -34 120 -76 123 -21 2 -42 0 -46 -4z m57
-130 c3 -9 6 -26 6 -39 0 -13 5 -27 10 -30 6 -3 10 -18 10 -33 0 -15 6 -39 14
-54 8 -14 17 -50 21 -80 4 -29 11 -57 15 -63 4 -5 10 -31 14 -56 8 -57 5 -59
-105 -59 -116 0 -131 14 -101 90 12 31 44 157 49 193 3 20 9 40 14 43 5 3 9
20 9 39 0 42 9 65 25 65 7 0 16 -7 19 -16z"/>
<path d="M3890 3500 l0 -450 30 0 30 0 0 195 c0 187 1 195 21 206 13 7 67 10
145 8 79 -2 128 1 135 8 5 5 9 28 7 49 l-3 39 -150 5 -150 5 -3 148 c-2 135
-1 147 15 148 10 0 90 2 178 2 l160 2 0 40 0 40 -207 3 -208 2 0 -450z"/>
<path d="M4435 3938 c-3 -7 -4 -209 -3 -448 l3 -435 235 0 235 0 0 35 0 35
-187 3 c-173 2 -188 4 -198 21 -12 24 -12 264 0 297 9 23 11 24 177 26 l168 3
0 40 0 40 -171 3 c-202 3 -184 -14 -184 164 0 84 4 120 13 130 10 10 55 13
188 12 96 -1 179 2 184 6 9 8 11 28 6 73 -1 4 -105 7 -231 7 -175 0 -232 -3
-235 -12z"/>
<path d="M5067 3944 c-4 -4 -7 -207 -7 -451 l0 -444 28 3 27 3 5 195 5 195 69
3 c84 4 117 -9 149 -56 28 -41 147 -283 147 -299 0 -20 37 -43 68 -43 25 0 32
4 32 19 0 11 -4 22 -9 25 -5 3 -12 18 -15 32 -13 51 -115 249 -145 283 -38 43
-39 57 -3 66 43 11 88 51 112 100 18 37 22 63 22 135 0 102 -19 156 -71 205
l-32 30 -187 3 c-103 2 -191 0 -195 -4z m351 -100 c74 -44 83 -208 15 -265
-33 -27 -104 -40 -208 -37 l-100 3 -3 157 c-3 183 -21 164 156 161 83 -2 121
-7 140 -19z"/>
<path d="M7562 3326 c-7 -12 -18 -66 -37 -176 -8 -47 -17 -99 -21 -116 -7 -36
6 -49 40 -40 16 4 28 20 40 53 10 27 37 100 62 163 24 63 44 117 44 120 0 10
-122 5 -128 -4z"/>
<path d="M4750 2847 c-55 -19 -94 -47 -125 -91 -30 -41 -80 -152 -97 -216 -5
-19 -14 -51 -19 -70 -34 -122 -51 -366 -43 -645 4 -115 10 -214 14 -220 4 -5
10 -32 13 -60 4 -49 30 -160 47 -200 76 -187 163 -275 270 -275 39 1 101 34
142 76 40 42 108 164 108 194 0 10 4 21 9 24 5 3 11 18 14 33 4 16 11 51 17
78 28 123 33 199 33 485 0 287 -6 376 -33 490 -5 25 -13 60 -16 78 -4 18 -11
35 -15 38 -5 3 -9 13 -9 23 0 62 -143 251 -190 251 -10 0 -22 5 -25 10 -8 13
-51 12 -95 -3z m113 -294 c15 -7 38 -31 52 -53 28 -45 65 -144 65 -177 0 -12
4 -24 9 -27 10 -7 24 -195 24 -326 0 -131 -14 -319 -24 -326 -5 -3 -9 -18 -9
-34 0 -40 -38 -137 -73 -187 -35 -49 -73 -68 -124 -60 -47 8 -74 34 -113 112
-55 109 -75 239 -74 495 1 197 11 337 25 346 5 3 9 18 9 35 0 36 52 148 82
176 55 52 89 58 151 26z"/>
<path d="M3205 2798 c-3 -7 -4 -389 -3 -848 l3 -835 57 -3 58 -3 2 323 3 323
105 6 c58 4 111 7 117 8 7 0 31 18 54 38 49 44 96 140 104 214 4 30 11 63 16
74 12 25 6 379 -8 455 -18 96 -46 161 -91 211 l-44 49 -184 0 c-139 0 -186 -3
-189 -12z m332 -275 c7 -10 23 -38 36 -63 19 -39 21 -61 21 -172 0 -87 -3
-131 -12 -140 -6 -6 -12 -20 -12 -29 0 -10 -19 -34 -42 -53 -39 -34 -46 -36
-109 -36 -108 0 -99 -22 -99 254 0 134 3 246 7 249 3 4 49 7 101 7 78 0 97 -3
109 -17z"/>
<path d="M3885 2798 c-3 -7 -4 -389 -3 -848 l3 -835 240 0 240 0 0 135 0 135
-175 3 c-124 2 -176 6 -182 15 -4 6 -8 325 -7 707 l0 695 -56 3 c-38 2 -57 -1
-60 -10z"/>
<path d="M5275 2798 c-3 -7 -4 -389 -3 -848 l3 -835 55 0 55 0 2 625 c2 344 5
631 8 639 12 32 29 -12 37 -96 5 -49 13 -131 18 -183 5 -52 14 -140 20 -195
20 -179 29 -277 44 -455 8 -96 20 -195 26 -220 6 -24 9 -54 6 -66 -11 -44 1
-54 70 -54 l64 0 0 63 c0 34 5 78 11 97 6 19 12 67 14 105 5 86 31 346 55 555
11 93 22 199 38 372 4 48 11 90 14 94 25 25 28 -34 28 -647 l0 -640 58 3 57 3
0 845 0 845 -105 0 -105 0 -7 -75 c-4 -41 -10 -115 -13 -165 -3 -49 -10 -99
-15 -110 -5 -11 -11 -58 -14 -105 -3 -47 -10 -125 -16 -175 -23 -196 -31 -273
-36 -352 -4 -54 -10 -86 -20 -94 -24 -19 -32 0 -38 86 -5 79 -14 161 -36 345
-14 116 -28 245 -39 365 -4 50 -11 97 -14 105 -3 8 -8 48 -11 88 -3 40 -8 77
-11 82 -9 15 -195 13 -200 -2z"/>
<path d="M6115 2798 c-3 -7 -4 -389 -3 -848 l3 -835 265 0 265 0 3 115 c4 176
25 159 -201 162 l-192 3 -3 229 c-2 160 1 233 9 242 9 11 48 14 176 14 l164 0
-3 133 -3 132 -170 5 -170 5 0 190 0 190 190 5 190 5 3 133 3 132 -261 0
c-199 0 -262 -3 -265 -12z"/>
<path d="M6800 1960 l0 -850 55 0 c50 0 55 2 55 23 0 12 0 168 0 347 0 179 4
331 9 339 14 21 97 9 126 -19 13 -12 33 -50 45 -83 12 -34 26 -71 30 -82 5
-11 12 -36 15 -55 8 -39 34 -126 45 -150 4 -9 11 -36 15 -60 3 -25 11 -58 16
-75 5 -16 20 -64 32 -105 l24 -75 78 -3 c71 -3 77 -1 72 15 -18 62 -48 173
-53 198 -3 17 -9 39 -14 50 -5 11 -18 63 -30 115 -12 52 -25 100 -30 105 -4 6
-11 27 -14 49 -4 21 -11 46 -16 55 -5 9 -18 37 -30 63 -11 26 -24 50 -30 53
-18 11 -12 63 9 70 28 9 80 71 102 122 33 77 42 153 42 338 0 209 -10 275 -54
362 -51 101 -58 103 -298 103 l-201 0 0 -850z m397 538 c26 -41 27 -48 27
-178 0 -118 -2 -139 -19 -165 -40 -60 -50 -64 -171 -65 -107 0 -112 1 -118 23
-8 29 -8 375 0 405 6 21 10 22 130 22 l124 0 27 -42z"/>
<path d="M7520 1960 l0 -850 60 0 60 0 0 850 0 850 -60 0 -60 0 0 -850z"/>
<path d="M8005 2798 c-10 -34 -18 -82 -29 -178 -7 -58 -17 -117 -24 -132 -6
-15 -9 -34 -6 -42 3 -8 0 -34 -7 -57 -7 -24 -13 -57 -14 -74 -3 -38 -28 -200
-55 -355 -7 -36 -16 -90 -21 -120 -15 -97 -29 -183 -39 -245 -6 -33 -13 -82
-16 -110 -3 -27 -9 -59 -14 -70 -5 -11 -11 -42 -14 -70 -2 -27 -10 -79 -16
-115 -22 -121 -25 -115 51 -118 l66 -3 7 48 c4 26 12 75 17 108 5 33 12 85 15
115 3 30 12 70 20 88 l15 33 147 -3 147 -3 8 -50 c4 -27 9 -73 12 -102 2 -28
8 -61 14 -72 6 -11 11 -37 11 -57 0 -21 5 -53 12 -71 12 -33 12 -33 80 -33 61
0 68 2 68 19 0 11 -4 23 -10 26 -5 3 -10 21 -10 38 0 18 -5 48 -11 67 -6 19
-12 51 -14 70 -3 34 -15 111 -34 220 -5 30 -15 87 -21 125 -6 39 -16 95 -21
125 -5 30 -14 80 -19 110 -5 30 -14 82 -20 115 -6 33 -13 83 -16 110 -3 28 -9
59 -14 70 -5 11 -11 43 -14 70 -3 28 -10 75 -16 105 -6 30 -13 78 -16 105 -3
28 -9 59 -14 70 -8 18 -16 75 -25 177 -7 69 -18 78 -91 78 -43 0 -66 -4 -69
-12z m95 -477 c0 -26 4 -51 9 -56 5 -6 11 -37 15 -70 3 -33 10 -87 16 -120 6
-33 13 -85 16 -115 3 -30 10 -64 15 -76 6 -11 9 -38 7 -60 l-3 -39 -100 0
c-90 0 -100 2 -103 19 -2 10 1 28 6 40 10 19 16 67 26 187 2 26 9 55 14 66 6
10 10 39 10 65 0 25 5 55 11 66 6 12 11 41 11 66 0 24 5 57 10 71 16 42 40 15
40 -44z"/>
<path d="M3147 854 c-10 -10 -8 -517 2 -532 6 -9 46 -12 167 -10 133 3 159 5
159 18 0 12 -24 16 -140 20 l-140 5 -3 102 -3 102 123 3 c115 3 123 4 123 23
0 19 -8 20 -120 25 l-120 5 -3 92 c-3 110 -12 105 153 101 l110 -3 3 28 3 27
-154 0 c-84 0 -157 -3 -160 -6z"/>
<path d="M3654 850 c-29 -11 -57 -50 -73 -98 -12 -36 -12 -45 3 -77 22 -46 50
-75 84 -85 88 -28 167 -63 183 -81 30 -35 25 -94 -10 -130 -26 -25 -37 -29
-85 -29 -72 0 -128 32 -142 82 -7 23 -16 34 -32 36 -22 3 -23 1 -16 -35 11
-58 48 -99 110 -123 68 -25 84 -25 144 1 64 27 91 72 91 146 0 90 -39 128
-176 169 -118 36 -149 99 -81 161 60 55 151 41 187 -29 38 -74 78 -64 47 12
-28 68 -65 90 -149 89 -35 0 -74 -4 -85 -9z"/>
<path d="M4027 853 c-4 -3 -7 -125 -7 -270 0 -232 2 -264 16 -270 25 -9 31 12
26 97 -2 43 -2 90 2 104 6 26 8 26 100 26 108 0 144 13 175 66 27 45 29 139 4
183 -30 53 -83 71 -204 71 -58 0 -109 -3 -112 -7z m260 -76 c23 -23 27 -38 25
-98 -1 -24 -11 -45 -28 -63 -25 -24 -33 -26 -120 -26 l-93 0 -7 35 c-10 56 0
165 17 176 8 6 49 8 99 4 70 -4 89 -9 107 -28z"/>
<path d="M4467 853 c-10 -9 -8 -516 1 -531 7 -9 47 -12 168 -10 133 3 159 5
159 18 0 12 -23 15 -137 18 -160 3 -151 -5 -146 127 l3 80 120 5 c115 5 120 6
123 28 3 22 2 22 -110 22 -75 0 -118 4 -126 12 -17 17 -16 162 1 176 8 7 60
10 135 9 109 -2 123 0 128 15 3 10 2 22 -1 28 -7 11 -307 14 -318 3z"/>
<path d="M4989 831 c-94 -59 -131 -213 -90 -371 33 -125 154 -198 253 -151 58
27 73 40 98 89 23 45 23 75 0 80 -10 1 -22 -14 -34 -43 -26 -64 -56 -85 -124
-85 -91 0 -137 50 -161 175 -19 105 19 229 85 271 14 9 46 19 73 22 40 3 52 0
78 -22 17 -14 36 -39 43 -56 12 -30 42 -41 55 -20 10 17 -38 93 -74 117 -52
35 -142 32 -202 -6z"/>
<path d="M5392 588 c3 -235 5 -273 18 -273 13 0 15 37 15 270 0 250 -1 270
-18 273 -16 3 -17 -13 -15 -270z"/>
<path d="M5685 848 c-2 -7 -23 -71 -46 -143 -23 -71 -45 -139 -49 -150 -5 -11
-13 -38 -18 -60 -6 -22 -20 -65 -31 -95 -27 -69 -27 -90 -1 -90 13 0 22 9 26
28 4 15 10 32 14 37 4 6 10 25 14 44 10 57 19 61 122 61 104 0 117 -7 128 -64
12 -63 35 -106 56 -106 22 0 27 28 10 58 -5 9 -32 87 -60 172 -28 85 -54 164
-59 175 -5 11 -17 47 -28 80 -17 51 -24 60 -47 63 -15 2 -28 -2 -31 -10z m55
-95 c0 -15 12 -57 30 -108 22 -62 31 -96 25 -105 -3 -5 -42 -10 -87 -10 -79 0
-80 0 -73 23 8 27 33 117 48 175 8 34 15 42 34 42 15 0 23 -6 23 -17z"/>
<path d="M5997 854 c-10 -10 -8 -516 1 -532 7 -9 41 -12 138 -10 107 3 129 6
129 18 0 12 -21 16 -110 20 l-110 5 -5 250 c-4 215 -7 250 -20 253 -9 1 -19 0
-23 -4z"/>
<path d="M6385 848 c-3 -7 -4 -130 -3 -273 3 -252 4 -260 23 -260 20 0 20 7
20 270 0 249 -1 270 -18 273 -9 2 -19 -3 -22 -10z"/>
<path d="M6542 833 l3 -28 99 2 c104 3 146 -3 146 -19 0 -5 -24 -44 -52 -87
-29 -42 -57 -84 -63 -93 -5 -9 -34 -51 -62 -93 -29 -42 -53 -79 -53 -82 0 -3
-9 -16 -20 -30 -24 -31 -26 -78 -4 -87 25 -10 318 -7 334 4 32 20 -10 29 -145
32 -133 3 -140 4 -143 24 -2 11 6 28 18 39 11 10 20 22 20 27 0 5 18 33 40 63
22 30 40 59 40 64 0 6 6 14 13 18 8 4 20 20 28 35 18 33 89 139 107 157 7 7
12 28 10 45 l-3 31 -158 3 -158 3 3 -28z"/>
<path d="M7082 848 c-7 -7 -12 -18 -12 -25 0 -7 -4 -21 -9 -31 -5 -9 -19 -51
-32 -92 -12 -41 -25 -84 -29 -95 -4 -11 -17 -54 -30 -95 -12 -41 -26 -84 -30
-95 -22 -59 -27 -84 -19 -96 13 -22 37 8 55 70 26 91 19 86 134 86 l103 0 28
-80 c22 -62 33 -81 48 -83 27 -4 27 15 -1 98 -30 91 -33 100 -51 141 -9 21
-19 54 -23 75 -3 22 -10 44 -13 49 -4 6 -18 44 -31 85 -13 41 -28 81 -33 88
-12 15 -39 16 -55 0z m52 -99 c4 -28 11 -58 15 -67 16 -32 34 -87 38 -119 l5
-33 -76 0 c-92 0 -96 5 -68 92 10 35 27 89 37 121 21 71 40 74 49 6z"/>
<path d="M7405 847 c-3 -7 -4 -129 -3 -272 l3 -260 100 -3 c55 -2 110 0 122 3
33 8 92 63 107 100 28 65 39 168 27 236 -19 114 -56 169 -128 195 -50 17 -222
19 -228 1z m238 -54 c5 -3 22 -23 38 -45 28 -40 29 -44 29 -163 0 -110 -2
-125 -23 -156 -39 -58 -81 -79 -156 -79 -39 0 -72 5 -79 12 -9 9 -12 71 -12
220 0 186 2 208 18 217 16 10 166 5 185 -6z"/>
<path d="M7992 843 c-6 -10 -13 -36 -17 -58 -4 -22 -11 -44 -15 -50 -4 -5 -18
-46 -30 -90 -12 -44 -33 -109 -45 -145 -59 -166 -65 -208 -28 -184 16 10 52
103 53 135 0 24 21 29 120 29 61 0 91 -4 99 -13 6 -8 21 -45 34 -83 18 -55 27
-70 45 -72 17 -3 22 2 22 17 0 12 -4 29 -10 39 -5 9 -25 67 -45 127 -20 61
-40 119 -44 130 -5 11 -16 47 -26 80 -10 33 -24 69 -31 81 -7 11 -14 31 -16
45 -4 31 -52 40 -66 12z m44 -60 c3 -10 9 -27 14 -38 20 -53 50 -164 50 -188
0 -27 -1 -27 -70 -27 -85 0 -90 7 -65 88 9 31 21 80 27 107 5 28 12 56 14 63
5 18 24 15 30 -5z"/>
</g>
</svg>
