<?xml version="1.0" encoding="utf-8"?>
<!-- Generator: Adobe Illustrator 20.1.0, SVG Export Plug-In . SVG Version: 6.00 Build 0)  -->
<svg version="1.1" id="Capa_1" xmlns="http://www.w3.org/2000/svg" xmlns:xlink="http://www.w3.org/1999/xlink" x="0px" y="0px"
	 viewBox="0 0 2102 1042" style="enable-background:new 0 0 2102 1042;" xml:space="preserve">
<style type="text/css">
	.st0{fill:#FFFFFF;}
	.st1{font-family:'DINCondensed-Bold';}
	.st2{font-size:490.8351px;}
	.st3{letter-spacing:-17.6;}
	.st4{font-family:'AvenirNextCondensed-Regular';}
	.st5{font-size:268.7622px;}
	.st6{font-family:'SinhalaSangamMN';}
	.st7{font-size:137.2327px;}
</style>
<g transform="translate(0.000000,447.000000) scale(0.100000,-0.100000)">
	<text transform="matrix(7.4 0 0 -10 7656.5527 -3117.7637)" class="st0 st1 st2 st3">PLOMERÍA</text>
	<text transform="matrix(10 0 0 -10 7820.6348 706.1816)" class="st0 st4 st5">AFER</text>
	<text transform="matrix(10 0 0 -10 7729.4824 -4562.5391)" class="st0 st6 st7">ESPECIALIZADA</text>
	<g id="L7Bi0f.tif">
		<g>
			<path class="st0" d="M7251.3-1739.9c0-10.7,0-21.4,0-32c-6.8-56.1-6.8-112.1,0-168.2c0-13.3,0-26.7,0-40
				c-6.5-6.5-3.3-14.8-4.1-22.4c0.4-6.1-1.3-12.7,4.1-17.6c0-13.3,0-26.7,0-40c-9-71-7.2-142.7-12.6-214
				c-11.5-153.5-40.5-304-79.9-452.2c-30.9-116-75.1-228.1-122.8-338.2c-58.9-135.9-125.3-268.3-202.3-395
				c-48.5-79.8-98.7-160-159.4-229.8c-103.9-119.4-212.2-235.6-333.4-338.8c-67.1-57.1-134.7-113.2-205.2-166
				c-98.5-73.7-201-139.7-313-192.1c-62.4-29.2-119-70.4-183-98.1c-89.6-38.9-180.8-72.4-275.9-94.6
				c-134.9-31.4-268.3-70.5-406.7-85.4c-57.2-6.2-114.6-1.2-171.9-2.8c-43.2,0-86.4,0-129.5,0c-169.9-2.3-338.7,11.3-504.1,50.6
				c-135.1,32.1-266.2,77.9-392.7,135.4c-117.8,53.5-236.3,105.8-347.4,172.5c-121.6,73-233.2,159.5-334,259.8
				c-143.8,143-287.4,286.2-409.3,449.1c-4.8,6.4-9.8,12.7-14.3,19.3c-154.1,228.9-281,470.3-361.7,736.2
				c-61.9,204.2-96.7,412.2-123.2,623c-13,103.6-13.7,207.2-15.6,311c0,37.9,0,75.9,0,113.7c-1.2,72.1,11.7,143.2,16.1,214.7
				c10,159.7,50.8,312.8,87.6,466.8c55.1,230.7,148.7,447.2,246.8,662.2c111,243.6,256.7,467.2,391.5,697.2
				c33.9,57.8,77.2,108.9,111.4,165.8c135.4,225.3,311.2,422.2,448.6,646.5c59.4,96.9,138.9,181.9,202.3,277.5
				c106.8,161.2,218.9,318.9,322,482.6c29.9,47.5,56.2,97,81.5,146.8c109.3,215.2,213.9,432.9,330.6,644.4
				c7.7,14,14.8,28.4,20.4,43.4c72.8,191.9,151.2,381.7,214,577.3c13.9,43.3,32.6,84.6,48.3,127.2c4.1,11.2,8.1,22.9,21,27.7
				c6.4,1.5,12.5,0.9,18.4-1.9c28.7-29.3,34.8-69.2,43.5-105.8c30.2-126.6,79.8-245.8,132.2-364.2c71.3-161,139.1-323.5,204.2-487
				c25.2-63.3,63.6-120.2,93.9-181.2c176.3-354.6,390.6-686.3,613.2-1012.7c92.4-135.5,202.7-258.2,295.7-393.5
				c31.7-46.2,62.3-93.2,95.6-138.2c15.1-20.4,15.9-41.1,5.7-63.9c-113.5-253.7-239.5-500.3-399-729.2
				c-65.5-94-125.8-191.8-186.6-289.1c-94-150.6-196.7-295.4-295.5-442.9c-119.7-178.7-263.6-339.7-382.1-518.9
				c-112.5-170.1-226.7-339.2-322.8-520c-91.6-172.2-176.9-347.1-253-526.4c-57.9-136.4-103.9-277.3-145.8-419.5
				c-40-135.7-82.1-270.8-111.7-409.2c-27.7-129.3-43.1-260.5-58.1-391.8c-9.1-79.5,11.4-112,87.3-134.3
				c103.7-30.5,207.1-65.4,314.7-76.4c77.5-7.9,156.2-8.7,234.8-8.8c150.7-0.2,292.9,38.6,436.9,72.4c59.6,14,110.6,46.3,165.3,70.4
				c242.1,106.7,456.3,255.1,639,446.6c105.3,110.3,195.2,233.1,269.8,366.6c26.7,47.7,54,95.1,80.4,143
				c101.9,184.7,166,384.6,233,582.8c36.6,108.3,49,224,63.3,337.9c16.6,132.2,33.4,264.4,46.2,397.1c0.6,6.6,1.5,13.3,1.8,19.9
				c10.1,272,16.6,544.5,5.6,816.2c-8.2,203.2-19,407.5-58.9,608.3c-3.1,15.7-5.6,31.6-6.2,47.6c-0.4,9.9,2.5,18.8,11.8,23.7
				c12.1,6.2,20.8-1.2,27.7-9.4c16.3-19.5,29.2-41.6,41.6-63.5c87.9-155.7,184.5-306.8,259.6-469.1
				c111.1-239.9,210.2-484,265.1-744.8c23.6-112,53.6-222.9,74-335.9c9.2-51.1,6.1-103.1,15.3-154c0-8,0-16,0-24
				c-6.5-6.5-3.3-14.8-4.1-22.4C7247.6-1728.4,7245.9-1735,7251.3-1739.9z"/>
			<path d="M7251.3-1940.2c-13.2,56.1-13.2,112.1,0,168.2C7251.3-1828,7251.3-1884.1,7251.3-1940.2z"/>
			<path d="M4792.4-4663.8c0-2.6,0-5.1,0-7.7c-48.1,0-96.1,0-144.2,0c0,2.6,0,5.1,0,7.7C4696.3-4663.8,4744.4-4663.8,4792.4-4663.8z
				"/>
			<path d="M2157.6-1916.2c-2.8,0-5.5,0-8.3,0.1c0,42.7,0,85.4,0,128.2c2.8,0,5.6,0,8.5,0.1
				C2161-1830.7,2160.8-1873.5,2157.6-1916.2z"/>
			<path d="M7244.2-1723.6c0.5,8.5-8.4,19.8,7.1,23.7c0-8,0-16,0-24C7248.8-1727.6,7246.4-1727.5,7244.2-1723.6z"/>
			<path d="M7243.9-2004.5c-0.9,9.1-4.2,19,7.4,24.2c0-8,0-16,0-24C7249-2007.7,7246.5-2008,7243.9-2004.5z"/>
			<path d="M7244.2-1723.6c2.4,0,4.8-0.1,7.1-0.3c0-5.3,0-10.7,0-16C7242.1-1737.5,7242.5-1730.8,7244.2-1723.6z"/>
			<path d="M7243.9-2004.5c2.5,0.1,4.9,0.2,7.4,0.2c0-5.3,0-10.7,0-16C7240.1-2019.1,7243.2-2011.2,7243.9-2004.5z"/>
			<path d="M4694.3,3377.6c1.1,7.4-0.3,20.4,6.4,20.2c9.2-0.4,13.8-11.1,11.7-21.8C4706.3,3376.5,4700.3,3377,4694.3,3377.6z"/>
		</g>
	</g>
</g>
</svg>
