<?xml version="1.0" encoding="utf-8"?>
<!-- Generator: Adobe Illustrator 20.1.0, SVG Export Plug-In . SVG Version: 6.00 Build 0)  -->
<svg version="1.1" id="Capa_1" xmlns="http://www.w3.org/2000/svg" xmlns:xlink="http://www.w3.org/1999/xlink" x="0px" y="0px"
	 viewBox="0 0 676 516" style="enable-background:new 0 0 676 516;" xml:space="preserve">
<style type="text/css">
	.st0{fill:#FFFFFF;}
</style>
<g>
	<path class="st0" d="M342.8,389.3c-40.1,0-80.3,0.1-120.4-0.2c-3.1,0-8.6,3.4-8.9-4.2c-0.4-10.4,1.9-15.4,8.5-16.5
		c3.5-0.6,8.2,1.5,10.3-1c2.7-3.3,0.9-8.3,0.9-12.5c0.1-36.5,0.1-73.1,0-109.6c0-4.8,1-6.7,6.2-6.5c9.1,0.4,18.2,0.5,27.2,0
		c5.3-0.3,6.7,1.1,6.7,6.6c-0.3,38.5,0,76.9-0.3,115.4c-0.1,6.5,1.6,8,7.9,7.7c12.4-0.5,12.4-0.1,12.4-12.3c0-37,0.1-74.1-0.1-111.1
		c0-5,1.1-6.5,6.2-6.3c9.3,0.4,18.6,0.5,27.9,0c5.4-0.3,6.1,1.7,6,6.4c-0.2,38.5,0,76.9-0.2,115.4c0,6,1,8.2,7.6,7.9
		c12.6-0.6,12.6-0.2,12.6-12.8c0-36.8,0.1-73.6-0.1-110.4c0-5.4,1.4-6.8,6.7-6.5c8.8,0.5,17.7,0.4,26.5,0c5.4-0.3,7.2,1,7.1,6.9
		c-0.3,38.5,0,76.9-0.3,115.4c0,5.9,1.4,7.6,7.4,7.4c12.8-0.5,12.8-0.1,12.8-12.6c0-36.8,0.1-73.6-0.1-110.4c0-5.2,1-7.1,6.5-6.7
		c8.8,0.6,17.7,0.5,26.5,0c5.4-0.3,6.7,1.4,6.7,6.7c-0.2,38.2,0,76.4-0.3,114.7c0,6.3,1.2,8.7,8.1,8.3c9.8-0.5,16.2,10.5,11.7,19.2
		c-1.5,2.9-4.3,1.5-6.4,1.5C425,389.4,383.9,389.3,342.8,389.3z"/>
	<path class="st0" d="M492.7,206.2c0,0.2,0,0.5,0,0.7c0,9.9,0,9.8-9.6,9.9c-5.1,0-10.4-1.5-12.7,6.2c-1.4,4.7-7.2,4.6-11.8,4.6
		c-40.1,0-80.2,0-120.3,0c-36.5,0-73,0-109.6,0c-6.8,0-13-0.6-14.8-8.9c-0.7-3.2-3.5-1.9-5.3-1.9c-15-0.4-14.8-0.4-14.9-15.4
		c0-4.4,1.1-6.6,5.4-8.4c46.3-19.7,92.5-39.6,138.6-59.6c3.4-1.5,6.3-2.1,10.1-0.4c46.4,20.1,92.8,40.2,139.3,59.8
		C494.6,196,492.2,201.2,492.7,206.2z"/>
	<path class="st0" d="M325.9,367.7c-33.2,0-66.3-0.1-99.5,0.1c-3.6,0-5.2-0.6-4.8-4.6c0.4-3.5,0-7,0.1-10.5c0.1-4.4,2.5-6.7,6.7-7.2
		c1.3-0.2,2.7-0.1,4-0.1c62.3,0,124.6,0,187,0c3.5,0,7.1-0.3,9.5,3.1c1.7,2.4,1.2,5.1,1.2,7.7c0.1,11.4,0,11.4-11.2,11.4
		C387.9,367.7,356.9,367.7,325.9,367.7z"/>
</g>
</svg>
