<svg id="svg" version="1.1" width="400" height="400" xmlns="http://www.w3.org/2000/svg" xmlns:xlink="http://www.w3.org/1999/xlink" style="display: block;"><g id="svgg"><path id="path0" d="M0.000 200.000 L 0.000 400.000 87.800 400.000 L 175.600 400.000 175.600 373.926 C 175.600 344.726,175.683 345.590,172.708 343.791 C 171.422 343.013,170.371 342.998,110.300 342.895 L 49.200 342.790 49.200 287.395 L 49.200 232.000 108.703 232.000 C 146.378 232.000,168.707 231.856,169.573 231.608 C 171.192 231.143,173.200 229.339,173.200 228.349 C 173.200 227.963,173.380 227.536,173.600 227.400 C 174.253 226.996,174.125 172.594,173.467 170.703 C 171.858 166.085,176.671 166.405,108.700 166.402 L 49.200 166.400 49.200 113.400 L 49.200 60.400 110.100 60.399 C 178.543 60.399,172.853 60.663,174.687 57.400 L 175.587 55.800 175.593 27.900 L 175.600 0.000 87.800 0.000 L 0.000 0.000 0.000 200.000 M220.487 58.900 C 221.106 59.505,221.835 59.995,222.106 59.988 C 222.378 59.981,222.240 59.777,221.800 59.533 C 221.360 59.290,220.631 58.800,220.181 58.445 C 219.730 58.090,219.868 58.295,220.487 58.900 M344.994 113.400 C 344.994 142.660,345.042 154.571,345.100 139.869 C 345.158 125.167,345.158 101.227,345.100 86.669 C 345.042 72.111,344.994 84.140,344.994 113.400 M225.505 166.683 C 226.002 166.779,226.722 166.775,227.105 166.675 C 227.487 166.575,227.080 166.496,226.200 166.501 C 225.320 166.505,225.007 166.587,225.505 166.683 M222.214 168.041 C 221.436 168.724,220.800 169.484,220.800 169.730 C 220.800 169.977,221.091 169.763,221.447 169.255 C 221.802 168.747,222.657 167.988,223.347 167.567 C 224.036 167.147,224.381 166.802,224.114 166.801 C 223.847 166.801,222.992 167.359,222.214 168.041 M220.093 199.276 C 220.042 214.608,220.135 227.236,220.300 227.338 C 220.572 227.507,220.569 207.382,220.292 181.400 C 220.234 175.900,220.144 183.944,220.093 199.276 M220.800 228.658 C 220.800 228.874,221.385 229.579,222.100 230.225 L 223.400 231.400 222.200 230.002 C 221.540 229.233,220.955 228.528,220.900 228.435 C 220.845 228.343,220.800 228.443,220.800 228.658 M226.105 231.887 C 226.714 231.979,227.614 231.977,228.105 231.882 C 228.597 231.787,228.100 231.711,227.000 231.714 C 225.900 231.717,225.497 231.795,226.105 231.887 M344.897 287.300 L 344.800 342.800 284.100 342.898 L 223.400 342.996 284.200 343.198 L 345.000 343.400 345.103 315.469 C 345.159 300.107,345.158 274.997,345.100 259.669 C 345.042 244.341,344.951 256.775,344.897 287.300 " stroke="none" fill="#414143" fill-rule="evenodd"></path><path id="path1" d="M218.400 27.605 C 218.400 47.702,218.526 55.454,218.862 56.105 C 219.116 56.597,219.445 57.261,219.593 57.580 C 220.923 60.450,219.289 60.380,285.100 60.390 L 345.200 60.400 345.200 113.390 L 345.200 166.380 285.100 166.490 C 217.838 166.613,223.660 166.353,221.442 169.329 C 220.478 170.622,219.858 224.472,220.771 227.617 C 222.099 232.191,218.451 231.953,287.500 231.978 L 345.200 232.000 345.200 287.700 L 345.200 343.400 284.098 343.297 C 214.912 343.181,221.088 342.883,219.316 346.430 C 218.433 348.200,218.433 348.201,218.416 374.100 L 218.400 400.000 309.200 400.000 L 400.000 400.000 400.000 200.000 L 400.000 0.000 309.200 0.000 L 218.400 0.000 218.400 27.605 " stroke="none" fill="#0098de" fill-rule="evenodd"></path></g></svg>